<?xml version="1.0" standalone="no"?>
<!DOCTYPE svg PUBLIC "-//W3C//DTD SVG 20010904//EN"
 "http://www.w3.org/TR/2001/REC-SVG-20010904/DTD/svg10.dtd">
<svg version="1.0" xmlns="http://www.w3.org/2000/svg"
 width="70.000000pt" height="70.000000pt" viewBox="0 0 70.000000 70.000000"
 preserveAspectRatio="xMidYMid meet">
<metadata>
Created by potrace 1.14, written by Peter Selinger 2001-2017
</metadata>
<g transform="translate(0.000000,70.000000) scale(0.100000,-0.100000)"
fill="#000000" stroke="none">
<path d="M0 350 l0 -350 350 0 350 0 0 350 0 350 -350 0 -350 0 0 -350z m391
129 c32 -16 42 -56 24 -92 -14 -28 -14 -31 5 -44 13 -9 20 -25 20 -48 0 -50
-37 -75 -111 -75 l-59 0 0 135 0 135 51 0 c28 0 59 -5 70 -11z"/>
<path d="M300 416 c0 -46 0 -46 35 -46 28 0 38 5 47 26 17 36 0 58 -46 62
l-36 3 0 -45z"/>
<path d="M300 295 c0 -45 0 -45 34 -45 51 0 66 9 66 39 0 37 -17 51 -62 51
l-38 0 0 -45z"/>
</g>
</svg>
